<svg xmlns="http://www.w3.org/2000/svg" width="512" height="512" viewBox="0 0 512 512">
  <!-- Background -->
  <rect width="512" height="512" rx="64" fill="#3b82f6"/>
  
  <!-- Main expense tracking icon -->
  <g transform="translate(128, 128)">
    <!-- Receipt/document shape -->
    <rect x="0" y="0" width="256" height="320" rx="16" fill="white" opacity="0.95"/>
    
    <!-- Header line -->
    <rect x="32" y="32" width="192" height="8" rx="4" fill="#3b82f6"/>
    
    <!-- Transaction lines -->
    <rect x="32" y="64" width="160" height="6" rx="3" fill="#6b7280"/>
    <rect x="32" y="80" width="120" height="6" rx="3" fill="#6b7280"/>
    <rect x="32" y="96" width="140" height="6" rx="3" fill="#6b7280"/>
    <rect x="32" y="112" width="100" height="6" rx="3" fill="#6b7280"/>
    
    <!-- Amounts (right aligned) -->
    <rect x="200" y="64" width="24" height="6" rx="3" fill="#ef4444"/>
    <rect x="180" y="80" width="44" height="6" rx="3" fill="#ef4444"/>
    <rect x="190" y="96" width="34" height="6" rx="3" fill="#22c55e"/>
    <rect x="210" y="112" width="14" height="6" rx="3" fill="#ef4444"/>
    
    <!-- Total line -->
    <rect x="32" y="140" width="192" height="2" fill="#d1d5db"/>
    <rect x="32" y="156" width="80" height="8" rx="4" fill="#1f2937"/>
    <rect x="160" y="152" width="64" height="12" rx="6" fill="#3b82f6"/>
    
    <!-- Share icon in corner -->
    <circle cx="200" cy="280" r="24" fill="#3b82f6"/>
    <path d="M190 275 l10 -5 l10 5 l-10 -10 z" fill="white"/>
    <path d="M190 285 l10 5 l10 -5 l-10 10 z" fill="white"/>
    <rect x="198" y="275" width="4" height="10" fill="white"/>
  </g>
  
  <!-- Pakistani Rupee symbol overlay -->
  <g transform="translate(380, 60)">
    <circle r="40" fill="white" opacity="0.9"/>
    <text x="0" y="15" text-anchor="middle" font-family="Arial, sans-serif" font-size="48" font-weight="bold" fill="#3b82f6">₨</text>
  </g>
</svg>